<svg width="224" height="126" viewBox="0 0 224 126" fill="none" xmlns="http://www.w3.org/2000/svg">
<g filter="url(#filter0_dddd_3185_1226)">
<rect x="15" y="3" width="72" height="72" rx="36" fill="white"/>
<path d="M57.8906 39.846C57.5371 41.189 55.8667 42.138 52.5257 44.0361C49.296 45.8709 47.6812 46.7884 46.3798 46.4196C45.8418 46.2671 45.3516 45.9776 44.9562 45.5787C44 44.6139 44 42.7426 44 39C44 35.2574 44 33.3861 44.9562 32.4213C45.3516 32.0225 45.8418 31.7329 46.3798 31.5804C47.6812 31.2117 49.296 32.1291 52.5257 33.9639C55.8667 35.862 57.5371 36.811 57.8906 38.154C58.0365 38.7084 58.0365 39.2916 57.8906 39.846Z" stroke="black" stroke-width="1.5" stroke-linejoin="round"/>
</g>
<path d="M103.912 45L98.984 33.8H100.712L105.24 44.136H104.248L108.808 33.8H110.408L105.496 45H103.912ZM113.292 38.632H119.052V39.992H113.292V38.632ZM113.436 43.608H119.964V45H111.836V33.8H119.74V35.192H113.436V43.608ZM123.995 45.128C123.334 45.128 122.715 44.9893 122.139 44.712C121.563 44.4347 121.094 44.0347 120.731 43.512L121.659 42.424C121.968 42.8507 122.315 43.1813 122.699 43.416C123.094 43.64 123.526 43.752 123.995 43.752C125.275 43.752 125.915 42.9947 125.915 41.48V35.192H121.867V33.8H127.499V41.4C127.499 42.648 127.2 43.5813 126.603 44.2C126.016 44.8187 125.147 45.128 123.995 45.128ZM128.828 45L133.9 33.8H135.484L140.572 45H138.892L134.364 34.696H135.004L130.476 45H128.828ZM130.988 42.2L131.42 40.92H137.724L138.188 42.2H130.988ZM147.995 38.632H153.755V39.992H147.995V38.632ZM148.139 43.608H154.667V45H146.539V33.8H154.443V35.192H148.139V43.608ZM157.258 45V33.8H158.57L163.594 42.264H162.89L167.85 33.8H169.162L169.178 45H167.642L167.626 36.216H167.994L163.578 43.64H162.842L158.394 36.216H158.794V45H157.258ZM175.14 45L180.212 33.8H181.796L186.884 45H185.204L180.676 34.696H181.316L176.788 45H175.14ZM177.3 42.2L177.732 40.92H184.036L184.5 42.2H177.3ZM193.407 45.128C192.553 45.128 191.764 44.9893 191.039 44.712C190.324 44.424 189.7 44.024 189.167 43.512C188.644 42.9893 188.233 42.3813 187.935 41.688C187.636 40.9947 187.487 40.232 187.487 39.4C187.487 38.568 187.636 37.8053 187.935 37.112C188.233 36.4187 188.649 35.816 189.183 35.304C189.716 34.7813 190.34 34.3813 191.055 34.104C191.78 33.816 192.569 33.672 193.423 33.672C194.287 33.672 195.081 33.8213 195.807 34.12C196.543 34.408 197.167 34.84 197.679 35.416L196.639 36.424C196.212 35.976 195.732 35.6453 195.199 35.432C194.665 35.208 194.095 35.096 193.487 35.096C192.857 35.096 192.271 35.2027 191.727 35.416C191.193 35.6293 190.729 35.928 190.335 36.312C189.94 36.696 189.631 37.1547 189.407 37.688C189.193 38.2107 189.087 38.7813 189.087 39.4C189.087 40.0187 189.193 40.5947 189.407 41.128C189.631 41.6507 189.94 42.104 190.335 42.488C190.729 42.872 191.193 43.1707 191.727 43.384C192.271 43.5973 192.857 43.704 193.487 43.704C194.095 43.704 194.665 43.5973 195.199 43.384C195.732 43.16 196.212 42.8187 196.639 42.36L197.679 43.368C197.167 43.944 196.543 44.3813 195.807 44.68C195.081 44.9787 194.281 45.128 193.407 45.128ZM192.751 48.584C192.473 48.584 192.217 48.552 191.983 48.488C191.748 48.4347 191.529 48.3493 191.327 48.232L191.663 47.448C191.833 47.544 192.004 47.6133 192.175 47.656C192.356 47.6987 192.548 47.72 192.751 47.72C193.06 47.72 193.284 47.6613 193.423 47.544C193.572 47.4373 193.647 47.2827 193.647 47.08C193.647 46.888 193.572 46.7333 193.423 46.616C193.284 46.5093 193.055 46.456 192.735 46.456H192.303L192.703 44.888H193.583L193.343 45.8C193.801 45.8427 194.148 45.9867 194.383 46.232C194.617 46.4773 194.735 46.776 194.735 47.128C194.735 47.576 194.553 47.928 194.191 48.184C193.828 48.4507 193.348 48.584 192.751 48.584ZM198 45L203.072 33.8H204.656L209.744 45H208.064L203.536 34.696H204.176L199.648 45H198ZM200.16 42.2L200.592 40.92H206.896L207.36 42.2H200.16ZM204.992 32.84C204.736 32.84 204.506 32.7867 204.304 32.68C204.112 32.5733 203.936 32.4507 203.776 32.312C203.616 32.1627 203.461 32.0347 203.312 31.928C203.162 31.8213 203.013 31.768 202.864 31.768C202.629 31.768 202.437 31.8587 202.288 32.04C202.149 32.2107 202.069 32.4507 202.048 32.76H201.184C201.205 32.1627 201.354 31.688 201.632 31.336C201.909 30.984 202.282 30.808 202.752 30.808C203.008 30.808 203.237 30.8667 203.44 30.984C203.642 31.0907 203.824 31.2187 203.984 31.368C204.144 31.5067 204.293 31.6293 204.432 31.736C204.581 31.8427 204.73 31.896 204.88 31.896C205.114 31.896 205.306 31.8107 205.456 31.64C205.605 31.4693 205.685 31.2347 205.696 30.936H206.56C206.549 31.5013 206.4 31.96 206.112 32.312C205.834 32.664 205.461 32.84 204.992 32.84ZM216.314 45.128C215.461 45.128 214.666 44.984 213.93 44.696C213.205 44.408 212.575 44.008 212.042 43.496C211.509 42.9733 211.093 42.3653 210.794 41.672C210.495 40.9787 210.346 40.2213 210.346 39.4C210.346 38.5787 210.495 37.8213 210.794 37.128C211.093 36.4347 211.509 35.832 212.042 35.32C212.575 34.7973 213.205 34.392 213.93 34.104C214.655 33.816 215.45 33.672 216.314 33.672C217.167 33.672 217.951 33.816 218.666 34.104C219.391 34.3813 220.021 34.7813 220.554 35.304C221.098 35.816 221.514 36.4187 221.802 37.112C222.101 37.8053 222.25 38.568 222.25 39.4C222.25 40.232 222.101 40.9947 221.802 41.688C221.514 42.3813 221.098 42.9893 220.554 43.512C220.021 44.024 219.391 44.424 218.666 44.712C217.951 44.9893 217.167 45.128 216.314 45.128ZM216.314 43.704C216.933 43.704 217.503 43.5973 218.026 43.384C218.559 43.1707 219.018 42.872 219.402 42.488C219.797 42.0933 220.101 41.6347 220.314 41.112C220.538 40.5893 220.65 40.0187 220.65 39.4C220.65 38.7813 220.538 38.2107 220.314 37.688C220.101 37.1653 219.797 36.712 219.402 36.328C219.018 35.9333 218.559 35.6293 218.026 35.416C217.503 35.2027 216.933 35.096 216.314 35.096C215.685 35.096 215.103 35.2027 214.57 35.416C214.047 35.6293 213.589 35.9333 213.194 36.328C212.799 36.712 212.49 37.1653 212.266 37.688C212.053 38.2107 211.946 38.7813 211.946 39.4C211.946 40.0187 212.053 40.5893 212.266 41.112C212.49 41.6347 212.799 42.0933 213.194 42.488C213.589 42.872 214.047 43.1707 214.57 43.384C215.103 43.5973 215.685 43.704 216.314 43.704Z" fill="black"/>
<defs>
<filter id="filter0_dddd_3185_1226" x="0" y="0" width="102" height="126" filterUnits="userSpaceOnUse" color-interpolation-filters="sRGB">
<feFlood flood-opacity="0" result="BackgroundImageFix"/>
<feColorMatrix in="SourceAlpha" type="matrix" values="0 0 0 0 0 0 0 0 0 0 0 0 0 0 0 0 0 0 127 0" result="hardAlpha"/>
<feOffset dy="2"/>
<feGaussianBlur stdDeviation="2.5"/>
<feColorMatrix type="matrix" values="0 0 0 0 0 0 0 0 0 0 0 0 0 0 0 0 0 0 0.1 0"/>
<feBlend mode="normal" in2="BackgroundImageFix" result="effect1_dropShadow_3185_1226"/>
<feColorMatrix in="SourceAlpha" type="matrix" values="0 0 0 0 0 0 0 0 0 0 0 0 0 0 0 0 0 0 127 0" result="hardAlpha"/>
<feOffset dy="9"/>
<feGaussianBlur stdDeviation="4.5"/>
<feColorMatrix type="matrix" values="0 0 0 0 0 0 0 0 0 0 0 0 0 0 0 0 0 0 0.09 0"/>
<feBlend mode="normal" in2="effect1_dropShadow_3185_1226" result="effect2_dropShadow_3185_1226"/>
<feColorMatrix in="SourceAlpha" type="matrix" values="0 0 0 0 0 0 0 0 0 0 0 0 0 0 0 0 0 0 127 0" result="hardAlpha"/>
<feOffset dy="20"/>
<feGaussianBlur stdDeviation="6"/>
<feColorMatrix type="matrix" values="0 0 0 0 0 0 0 0 0 0 0 0 0 0 0 0 0 0 0.05 0"/>
<feBlend mode="normal" in2="effect2_dropShadow_3185_1226" result="effect3_dropShadow_3185_1226"/>
<feColorMatrix in="SourceAlpha" type="matrix" values="0 0 0 0 0 0 0 0 0 0 0 0 0 0 0 0 0 0 127 0" result="hardAlpha"/>
<feOffset dy="36"/>
<feGaussianBlur stdDeviation="7.5"/>
<feColorMatrix type="matrix" values="0 0 0 0 0 0 0 0 0 0 0 0 0 0 0 0 0 0 0.01 0"/>
<feBlend mode="normal" in2="effect3_dropShadow_3185_1226" result="effect4_dropShadow_3185_1226"/>
<feBlend mode="normal" in="SourceGraphic" in2="effect4_dropShadow_3185_1226" result="shape"/>
</filter>
</defs>
</svg>
